# xmcd CD database file
#
# Track frame offsets:
#	197
#	16895
#	42892
#	68295
#	95675
#	119227
#	145515
#	169532
#	187315
#	204070
#
# Disc length: 3046 seconds
#
# Revision: 2
# Processed by: cddbd v1.5.1PL0 Copyright (c) Steve Scherf et al.
# Submitted via: CDex 1.51
#
DISCID=810be40a
DTITLE=Tom Principato - Tip Of The Iceberg
DYEAR=1992
DGENRE=Blues
TTITLE0=Call the Law
TTITLE1=Twister
TTITLE2=It All went Down the Drain
TTITLE3=All My Tears
TTITLE4=Can't You See what You're Doin' to Me?
TTITLE5=Drivin' South
TTITLE6=I Only Have Love
TTITLE7=Goodbye for Now
TTITLE8=I'd Rather be Blind
TTITLE9=Sweet Little Thing
EXTD=YEAR: 1992
EXTT0=
EXTT1=
EXTT2=
EXTT3=
EXTT4=
EXTT5=
EXTT6=
EXTT7=
EXTT8=
EXTT9=
PLAYORDER=
